<?xml version="1.0" encoding="UTF-8"?>
<svg version="1.1" xmlns="http://www.w3.org/2000/svg" width="200" height="200">
<path d="M0 0 C0.978479 0.00161133 1.95695801 0.00322266 2.96508789 0.00488281 C10.03764337 0.12512628 15.9502263 0.97220253 22.25 4.375 C22.97703125 4.7565625 23.7040625 5.138125 24.453125 5.53125 C26.08104055 6.42852629 27.67175615 7.39298161 29.25 8.375 C29.25 9.035 29.25 9.695 29.25 10.375 C29.8275 10.6225 30.405 10.87 31 11.125 C33.57939979 12.55799988 35.31121592 14.15924676 37.25 16.375 C37.25 17.035 37.25 17.695 37.25 18.375 C37.91 18.375 38.57 18.375 39.25 18.375 C47.06246282 32.68392254 50.35709284 45.06356014 46.5078125 61.5546875 C45.82193035 63.86055797 45.09276008 66.1223394 44.25 68.375 C45.03375 68.931875 45.8175 69.48875 46.625 70.0625 C50.22748741 73.23611986 51.02639139 75.62339921 51.625 80.3125 C51.02625502 85.20225065 48.73117027 88.14069144 45 91.25 C41.23016023 92.79220718 38.30652128 92.58126379 34.25 92.375 C33.91548828 94.27185547 33.91548828 94.27185547 33.57421875 96.20703125 C31.88932258 104.61379187 29.41155032 112.82289517 27.0625 121.0625 C26.56275272 122.82566296 26.06307876 124.5888467 25.56347656 126.35205078 C22.70929997 136.39825099 19.77324042 146.41403404 16.68188477 156.39013672 C14.18497158 164.47847336 11.89938707 172.62171879 9.64550781 180.78076172 C8.32922673 185.54343467 6.99904008 190.30111519 5.609375 195.04296875 C5.37186523 195.85403076 5.13435547 196.66509277 4.88964844 197.50073242 C4.25 199.375 4.25 199.375 3.25 200.375 C1.58382885 200.41563832 -0.08388095 200.417721 -1.75 200.375 C-4.32793734 194.7066438 -6.21709578 188.96185653 -8 183 C-8.30591064 181.98526611 -8.61182129 180.97053223 -8.92700195 179.92504883 C-11.29899041 172.00361726 -13.55339503 164.05206754 -15.76367188 156.08422852 C-18.52548242 146.13488189 -21.35205108 136.20446423 -24.18887329 126.27627563 C-24.72464615 124.40118149 -25.26011344 122.526 -25.79525757 120.65072632 C-29.69279628 106.98948369 -29.69279628 106.98948369 -33.75 93.375 C-34.46655762 93.2625293 -35.18311523 93.15005859 -35.92138672 93.03417969 C-41.2021443 92.17540327 -44.89724714 91.35203521 -48.75 87.375 C-50.71736927 83.44026145 -50.21486338 78.6641395 -49.75 74.375 C-47.875 71.3125 -47.875 71.3125 -45.75 69.375 C-44.76 68.385 -44.76 68.385 -43.75 67.375 C-43.95496094 66.81554687 -44.15992188 66.25609375 -44.37109375 65.6796875 C-49.02065457 51.84223856 -48.62353911 38.53841516 -42.625 25.1875 C-36.43645241 13.89065425 -26.58003742 5.64617609 -14.5234375 1.1796875 C-9.6409209 0.13848831 -4.98047215 -0.00847524 0 0 Z " fill="#EF94D4" transform="translate(99.75,-0.375)"/>
<path d="M0 0 C1.29349365 0.00523682 2.5869873 0.01047363 3.91967773 0.01586914 C4.9496714 0.01799156 4.9496714 0.01799156 6.00047302 0.02015686 C8.20144949 0.0257706 10.40232557 0.03832532 12.60327148 0.05102539 C14.09220231 0.05603863 15.58113473 0.06060184 17.07006836 0.06469727 C20.72700223 0.07574446 24.38387707 0.09301826 28.04077148 0.11352539 C28.055354 0.75378662 28.06993652 1.39404785 28.08496094 2.05371094 C28.15968531 4.97007371 28.25626441 7.88532226 28.35327148 10.80102539 C28.38710937 12.31212891 28.38710937 12.31212891 28.42163086 13.85375977 C28.56074681 21.02673988 28.56074681 21.02673988 32.04077148 27.11352539 C35.75091249 28.35023906 39.18515907 28.67721142 43.04077148 28.11352539 C45.85080609 26.31988628 47.55017616 25.09471604 49.04077148 22.11352539 C49.19300121 20.4478679 49.28994364 18.77696043 49.35717773 17.10571289 C49.42001953 15.62651367 49.42001953 15.62651367 49.48413086 14.11743164 C49.52344727 13.08489258 49.56276367 12.05235352 49.60327148 10.98852539 C49.66804688 9.42811523 49.66804688 9.42811523 49.73413086 7.83618164 C49.84039917 5.26212709 49.94110676 2.68784408 50.04077148 0.11352539 C55.98077148 0.11352539 61.92077148 0.11352539 68.04077148 0.11352539 C66.72077148 0.44352539 65.40077148 0.77352539 64.04077148 1.11352539 C63.70625977 3.01038086 63.70625977 3.01038086 63.36499023 4.94555664 C61.68009407 13.35231726 59.2023218 21.56142056 56.85327148 29.80102539 C56.3535242 31.56418835 55.85385024 33.32737209 55.35424805 35.09057617 C52.50007145 45.13677638 49.56401191 55.15255943 46.47265625 65.12866211 C43.97574306 73.21699875 41.69015856 81.36024418 39.4362793 89.51928711 C38.11999821 94.28196006 36.78981157 99.03964059 35.40014648 103.78149414 C35.16263672 104.59255615 34.92512695 105.40361816 34.68041992 106.23925781 C34.04077148 108.11352539 34.04077148 108.11352539 33.04077148 109.11352539 C31.37460033 109.15416371 29.70689054 109.15624639 28.04077148 109.11352539 C25.46283414 103.44516919 23.57367571 97.70038192 21.79077148 91.73852539 C21.48486084 90.7237915 21.1789502 89.70905762 20.86376953 88.66357422 C18.49158276 80.74148037 16.23605064 72.78949108 14.02709961 64.82055664 C10.75196141 53.0156629 7.37177589 41.24099031 3.99551392 29.46469116 C-1.5665824 10.06408006 -1.5665824 10.06408006 -3.95922852 1.11352539 C-2.95922852 0.11352539 -2.95922852 0.11352539 0 0 Z " fill="#F5C949" transform="translate(69.959228515625,90.886474609375)"/>
<path d="M0 0 C5.94 0 11.88 0 18 0 C16.68 0.33 15.36 0.66 14 1 C13.66548828 2.89685547 13.66548828 2.89685547 13.32421875 4.83203125 C11.63932258 13.23879187 9.16155032 21.44789517 6.8125 29.6875 C6.31275272 31.45066296 5.81307876 33.2138467 5.31347656 34.97705078 C2.45929997 45.02325099 -0.47675958 55.03903404 -3.56811523 65.01513672 C-6.06502842 73.10347336 -8.35061293 81.24671879 -10.60449219 89.40576172 C-11.92077327 94.16843467 -13.25095992 98.92611519 -14.640625 103.66796875 C-14.87813477 104.47903076 -15.11564453 105.29009277 -15.36035156 106.12573242 C-16 108 -16 108 -17 109 C-18.66617115 109.04063832 -20.33388095 109.042721 -22 109 C-23.92710304 105.7881616 -25.17652954 103.53794677 -24.7421875 99.75390625 C-23.9381321 96.79184011 -22.9878754 93.90630919 -22 91 C-21.07141398 88.12878043 -20.16157682 85.251658 -19.25 82.375 C-18.99492676 81.57747314 -18.73985352 80.77994629 -18.47705078 79.95825195 C-15.33014573 70.04291218 -12.58920203 60.01468451 -9.82714844 49.98681641 C-9.04392843 47.1586247 -8.24769788 44.33452496 -7.4453125 41.51171875 C-7.21013916 40.680354 -6.97496582 39.84898926 -6.73266602 38.99243164 C-6.29838544 37.45829 -5.86153403 35.92487285 -5.42163086 34.39233398 C-4.60608125 31.49264059 -4 29.02927352 -4 26 C-3.5155542 25.38543945 -3.0311084 24.77087891 -2.53198242 24.13769531 C-0.6568689 21.52120225 -0.5810499 19.98811651 -0.48828125 16.796875 C-0.45283203 15.8171875 -0.41738281 14.8375 -0.38085938 13.828125 C-0.35830078 12.81234375 -0.33574219 11.7965625 -0.3125 10.75 C-0.27833984 9.71875 -0.24417969 8.6875 -0.20898438 7.625 C-0.12662785 5.08371301 -0.06163407 2.54187399 0 0 Z " fill="#ECB042" transform="translate(120,91)"/>
<path d="M0 0 C11.54919518 -0.72560389 20.24381081 1.92948228 30 8 C30 8.66 30 9.32 30 10 C30.5775 10.2475 31.155 10.495 31.75 10.75 C34.32939979 12.18299988 36.06121592 13.78424676 38 16 C38 16.66 38 17.32 38 18 C38.66 18 39.32 18 40 18 C47.81246282 32.30892254 51.10709284 44.68856014 47.2578125 61.1796875 C46.57193035 63.48555797 45.84276008 65.7473394 45 68 C45.78375 68.556875 46.5675 69.11375 47.375 69.6875 C50.97748741 72.86111986 51.77639139 75.24839921 52.375 79.9375 C51.77375275 84.84768589 49.43862935 87.76118029 45.75 90.9375 C41.81599462 92.45745662 39.12063521 91.76825402 35 91 C35.433125 90.59910156 35.86625 90.19820313 36.3125 89.78515625 C39.5242038 86.50654195 41.45960759 84.06644032 41.6875 79.375 C41.44739775 75.76730984 40.99657431 74.99567281 38.625 72 C36.19550917 70.02011556 36.19550917 70.02011556 34 69 C34.20496094 68.32453125 34.40992188 67.6490625 34.62109375 66.953125 C34.89050781 66.06109375 35.15992188 65.1690625 35.4375 64.25 C35.70433594 63.36828125 35.97117188 62.4865625 36.24609375 61.578125 C36.49488281 60.72734375 36.74367187 59.8765625 37 59 C37.19078125 58.39800781 37.3815625 57.79601563 37.578125 57.17578125 C39.55130111 46.99930815 38.65819239 36.24360052 34 27 C33.38125 25.72576172 33.38125 25.72576172 32.75 24.42578125 C26.55006572 12.92419861 16.96112579 6.28578802 4.75 2.2578125 C3.17875146 1.79530789 1.5910592 1.38892558 0 1 C0 0.67 0 0.34 0 0 Z " fill="#D56DAE" transform="translate(99,0)"/>
<path d="M0 0 C2.97 0 5.94 0 9 0 C9.14601614 3.54122827 9.2343056 7.08167644 9.3125 10.625 C9.3753418 12.12353516 9.3753418 12.12353516 9.43945312 13.65234375 C9.57759825 21.99630922 9.57759825 21.99630922 6.60546875 25.6484375 C2.25128339 29.57830195 -0.31801946 29.09164485 -6 29 C-5.19175781 28.08089844 -4.38351563 27.16179687 -3.55078125 26.21484375 C-0.04834724 21.31143613 -0.22176101 16.41351914 -0.1875 10.5625 C-0.16236328 9.54478516 -0.13722656 8.52707031 -0.11132812 7.47851562 C-0.05280165 4.98528776 -0.01627016 2.49380145 0 0 Z " fill="#E16DB4" transform="translate(111,91)"/>
<path d="M0 0 C0.99 0 1.98 0 3 0 C2.25 7.625 2.25 7.625 0 11 C0 7.37 0 3.74 0 0 Z " fill="#F8CB45" transform="translate(121,92)"/>
<path d="M0 0 C1.32 0.33 2.64 0.66 4 1 C2.09598862 2.90401138 0.66574314 3.93520439 -2.046875 4.19921875 C-4.03233273 4.1886578 -6.0169914 4.09915043 -8 4 C-8 3.67 -8 3.34 -8 3 C-5.69 3 -3.38 3 -1 3 C-0.67 2.01 -0.34 1.02 0 0 Z " fill="#DF74A8" transform="translate(113,116)"/>
</svg>
